<?xml version="1.0" encoding="utf-8"?>
<svg xmlns="http://www.w3.org/2000/svg" viewBox="0 0 320 100" width="320px" height="100px" xmlns:c2pa="http://c2pa.org/manifest"><metadata><c2pa:manifest>AAAWgmp1bWIAAAAeanVtZGMycGEAEQAQgAAAqgA4m3EDYzJwYQAAABZcanVtYgAAAEdqdW1kYzJtYQARABCAAACqADibcQN1cm46YzJwYToyMjhjMGViNy05ODQ1LTQxNGQtYWZhNi0yMGRmYTlhNGQyNWMAAAADl2p1bWIAAAApanVtZGMyYXMAEQAQgAAAqgA4m3EDYzJwYS5hc3NlcnRpb25zAAAAALxqdW1iAAAARGp1bWRjYm9yABEAEIAAAKoAOJtxE2MycGEuaW5ncmVkaWVudC52MwAAAAAYYzJzaMs1FN5InOGspqYyvnjXjdYAAABwY2JvcqNpZGM6Zm9ybWF0bWltYWdlL3N2Zyt4bWxqaW5zdGFuY2VJRHgseG1wOmlpZDphOTQ4ZGUyMi1jODBlLTQyY2EtYjJjYy1mOTU5YTlhMzliY2NscmVsYXRpb25zaGlwaHBhcmVudE9mAAAB4mp1bWIAAABBanVtZGNib3IAEQAQgAAAqgA4m3ETYzJwYS5hY3Rpb25zLnYyAAAAABhjMnNosmTsVyYUSx5bdQcgDj1qOQAAAZljYm9yomdhY3Rpb25zgqJmYWN0aW9ua2MycGEub3BlbmVkanBhcmFtZXRlcnOha2luZ3JlZGllbnRzgaJjdXJseC1zZWxmI2p1bWJmPWMycGEuYXNzZXJ0aW9ucy9jMnBhLmluZ3JlZGllbnQudjNkaGFzaFggHqW8AAqzOveZP6veh8PnsSWd3ERHDvzCrXExcp8FiACkZmFjdGlvbngdY29tLmFudGhyb3BpYy5jbGF1ZGUucHJvdmlkZWRqcGFyYW1ldGVyc6F4H2NvbS5hbnRocm9waWMub3JpZ2luLWNvbmZpZGVuY2VndW5rbm93bmtkZXNjcmlwdGlvbnhmQ2xhdWRlIHByb3ZpZGVkIHRoaXMgZmlsZSBhdCB0aGUgcmVxdWVzdCBvZiBhIHVzZXIgYW5kIG1heSBoYXZlIGNyZWF0ZWQgb3IgbW9kaWZpZWQgdGhlIGZpbGUgY29udGVudHMubXNvZnR3YXJlQWdlbnShZG5hbWVmQ2xhdWRlcmFsbEFjdGlvbnNJbmNsdWRlZPUAAADIanVtYgAAAEBqdW1kY2JvcgARABCAAACqADibcRNjMnBhLmhhc2guZGF0YQAAAAAYYzJzaAqb+rrGdDMMPMwHElStSOAAAACAY2JvcqVjYWxnZnNoYTI1NmNwYWRNAAAAAAAAAAAAAAAAAGRoYXNoWCDa+eTsYi1/dtppKPvVKuXixufL/WAo5wID138a8Pl4AWRuYW1lbmp1bWJmIG1hbmlmZXN0amV4Y2x1c2lvbnOBomVzdGFydBjBZmxlbmd0aBkeBAAAAj5qdW1iAAAAJ2p1bWRjMmNsABEAEIAAAKoAOJtxA2MycGEuY2xhaW0udjIAAAACD2Nib3KlY2FsZ2ZzaGEyNTZpc2lnbmF0dXJleE1zZWxmI2p1bWJmPS9jMnBhL3VybjpjMnBhOjIyOGMwZWI3LTk4NDUtNDE0ZC1hZmE2LTIwZGZhOWE0ZDI1Yy9jMnBhLnNpZ25hdHVyZWppbnN0YW5jZUlEeCx4bXA6aWlkOjE3MWZjZjk0LWMxYjEtNDQzOC1iOTQ1LTkyNDllYzYzYjRkZHJjcmVhdGVkX2Fzc2VydGlvbnODomN1cmx4LXNlbGYjanVtYmY9YzJwYS5hc3NlcnRpb25zL2MycGEuaW5ncmVkaWVudC52M2RoYXNoWCAepbwACrM695k/q96Hw+exJZ3cREcO/MKtcTFynwWIAKJjdXJseCpzZWxmI2p1bWJmPWMycGEuYXNzZXJ0aW9ucy9jMnBhLmFjdGlvbnMudjJkaGFzaFggV3O87A/F0Ku7b1N5wqESYzQWd0Q4iN+UdxTM4g6QMZKiY3VybHgpc2VsZiNqdW1iZj1jMnBhLmFzc2VydGlvbnMvYzJwYS5oYXNoLmRhdGFkaGFzaFgg+X5Nl4wPaDw2Li+THqcl1HOWcwsj1ax/Dh5k0GY8Ojd0Y2xhaW1fZ2VuZXJhdG9yX2luZm+jZG5hbWVvQW50aHJvcGljIEZpbGVzZ3ZlcnNpb25lMS4wLjBrc3BlY1ZlcnNpb25lMi40LjAAABA4anVtYgAAAChqdW1kYzJjcwARABCAAACqADibcQNjMnBhLnNpZ25hdHVyZQAAABAIY2JvctKEWQISogEmGCFZAgowggIGMIIBjaADAgECAhRA5aAK7sI50L64g/oGQgU9Z1UTADAKBggqhkjOPQQDAzBJMRcwFQYDVQQKEw5BbnRocm9waWMsIFBCQzEuMCwGA1UEAxMlQW50aHJvcGljIENvbnRlbnQgQ3JlZGVudGlhbHMgUm9vdCBDQTAeFw0yNjA4MDcxODQzNTZaFw0yODA4MDYxOTQzNTZaMEQxFzAVBgNVBAoTDkFudGhyb3BpYywgUEJDMSkwJwYDVQQDEyBBbnRocm9waWMgQ2xhdWRlIENvbnRlbnQgU2lnbmluZzBZMBMGByqGSM49AgEGCCqGSM49AwEHA0IABJh6CmvLUBgFFNU0vUKlOVtE6djd17L5SuwX0LemFisBM3dkd/3cyjxFA3Qo5S46fX0/ihY0VZ7mfb9KF703t5OjWDBWMA4GA1UdDwEB/wQEAwIHgDAVBgNVHSUEDjAMBgorBgEEAYPoXgIBMAwGA1UdEwEB/wQCMAAwHwYDVR0jBBgwFoAUzlHiBIFOZFsj+OPEz5o+nMHXXMIwCgYIKoZIzj0EAwMDZwAwZAIwMXMdFJ4BetLLVY7ORuE9noqbbAZOZn/aArXyTwFAZfKrPzxF2vPoJNf1+UCdg1XGAjBwX1zd9WGqYkqmL5SFqw1QySjr1zJfpJM9+1rdDwSPLMOPOjKuiXjoU/pUUeG9RwmhY3BhZFkNngAAAAAAAAAAAAAAAAAAAAAAAAAAAAAAAAAAAAAAAAAAAAAAAAAAAAAAAAAAAAAAAAAAAAAAAAAAAAAAAAAAAAAAAAAAAAAAAAAAAAAAAAAAAAAAAAAAAAAAAAAAAAAAAAAAAAAAAAAAAAAAAAAAAAAAAAAAAAAAAAAAAAAAAAAAAAAAAAAAAAAAAAAAAAAAAAAAAAAAAAAAAAAAAAAAAAAAAAAAAAAAAAAAAAAAAAAAAAAAAAAAAAAAAAAAAAAAAAAAAAAAAAAAAAAAAAAAAAAAAAAAAAAAAAAAAAAAAAAAAAAAAAAAAAAAAAAAAAAAAAAAAAAAAAAAAAAAAAAAAAAAAAAAAAAAAAAAAAAAAAAAAAAAAAAAAAAAAAAAAAAAAAAAAAAAAAAAAAAAAAAAAAAAAAAAAAAAAAAAAAAAAAAAAAAAAAAAAAAAAAAAAAAAAAAAAAAAAAAAAAAAAAAAAAAAAAAAAAAAAAAAAAAAAAAAAAAAAAAAAAAAAAAAAAAAAAAAAAAAAAAAAAAAAAAAAAAAAAAAAAAAAAAAAAAAAAAAAAAAAAAAAAAAAAAAAAAAAAAAAAAAAAAAAAAAAAAAAAAAAAAAAAAAAAAAAAAAAAAAAAAAAAAAAAAAAAAAAAAAAAAAAAAAAAAAAAAAAAAAAAAAAAAAAAAAAAAAAAAAAAAAAAAAAAAAAAAAAAAAAAAAAAAAAAAAAAAAAAAAAAAAAAAAAAAAAAAAAAAAAAAAAAAAAAAAAAAAAAAAAAAAAAAAAAAAAAAAAAAAAAAAAAAAAAAAAAAAAAAAAAAAAAAAAAAAAAAAAAAAAAAAAAAAAAAAAAAAAAAAAAAAAAAAAAAAAAAAAAAAAAAAAAAAAAAAAAAAAAAAAAAAAAAAAAAAAAAAAAAAAAAAAAAAAAAAAAAAAAAAAAAAAAAAAAAAAAAAAAAAAAAAAAAAAAAAAAAAAAAAAAAAAAAAAAAAAAAAAAAAAAAAAAAAAAAAAAAAAAAAAAAAAAAAAAAAAAAAAAAAAAAAAAAAAAAAAAAAAAAAAAAAAAAAAAAAAAAAAAAAAAAAAAAAAAAAAAAAAAAAAAAAAAAAAAAAAAAAAAAAAAAAAAAAAAAAAAAAAAAAAAAAAAAAAAAAAAAAAAAAAAAAAAAAAAAAAAAAAAAAAAAAAAAAAAAAAAAAAAAAAAAAAAAAAAAAAAAAAAAAAAAAAAAAAAAAAAAAAAAAAAAAAAAAAAAAAAAAAAAAAAAAAAAAAAAAAAAAAAAAAAAAAAAAAAAAAAAAAAAAAAAAAAAAAAAAAAAAAAAAAAAAAAAAAAAAAAAAAAAAAAAAAAAAAAAAAAAAAAAAAAAAAAAAAAAAAAAAAAAAAAAAAAAAAAAAAAAAAAAAAAAAAAAAAAAAAAAAAAAAAAAAAAAAAAAAAAAAAAAAAAAAAAAAAAAAAAAAAAAAAAAAAAAAAAAAAAAAAAAAAAAAAAAAAAAAAAAAAAAAAAAAAAAAAAAAAAAAAAAAAAAAAAAAAAAAAAAAAAAAAAAAAAAAAAAAAAAAAAAAAAAAAAAAAAAAAAAAAAAAAAAAAAAAAAAAAAAAAAAAAAAAAAAAAAAAAAAAAAAAAAAAAAAAAAAAAAAAAAAAAAAAAAAAAAAAAAAAAAAAAAAAAAAAAAAAAAAAAAAAAAAAAAAAAAAAAAAAAAAAAAAAAAAAAAAAAAAAAAAAAAAAAAAAAAAAAAAAAAAAAAAAAAAAAAAAAAAAAAAAAAAAAAAAAAAAAAAAAAAAAAAAAAAAAAAAAAAAAAAAAAAAAAAAAAAAAAAAAAAAAAAAAAAAAAAAAAAAAAAAAAAAAAAAAAAAAAAAAAAAAAAAAAAAAAAAAAAAAAAAAAAAAAAAAAAAAAAAAAAAAAAAAAAAAAAAAAAAAAAAAAAAAAAAAAAAAAAAAAAAAAAAAAAAAAAAAAAAAAAAAAAAAAAAAAAAAAAAAAAAAAAAAAAAAAAAAAAAAAAAAAAAAAAAAAAAAAAAAAAAAAAAAAAAAAAAAAAAAAAAAAAAAAAAAAAAAAAAAAAAAAAAAAAAAAAAAAAAAAAAAAAAAAAAAAAAAAAAAAAAAAAAAAAAAAAAAAAAAAAAAAAAAAAAAAAAAAAAAAAAAAAAAAAAAAAAAAAAAAAAAAAAAAAAAAAAAAAAAAAAAAAAAAAAAAAAAAAAAAAAAAAAAAAAAAAAAAAAAAAAAAAAAAAAAAAAAAAAAAAAAAAAAAAAAAAAAAAAAAAAAAAAAAAAAAAAAAAAAAAAAAAAAAAAAAAAAAAAAAAAAAAAAAAAAAAAAAAAAAAAAAAAAAAAAAAAAAAAAAAAAAAAAAAAAAAAAAAAAAAAAAAAAAAAAAAAAAAAAAAAAAAAAAAAAAAAAAAAAAAAAAAAAAAAAAAAAAAAAAAAAAAAAAAAAAAAAAAAAAAAAAAAAAAAAAAAAAAAAAAAAAAAAAAAAAAAAAAAAAAAAAAAAAAAAAAAAAAAAAAAAAAAAAAAAAAAAAAAAAAAAAAAAAAAAAAAAAAAAAAAAAAAAAAAAAAAAAAAAAAAAAAAAAAAAAAAAAAAAAAAAAAAAAAAAAAAAAAAAAAAAAAAAAAAAAAAAAAAAAAAAAAAAAAAAAAAAAAAAAAAAAAAAAAAAAAAAAAAAAAAAAAAAAAAAAAAAAAAAAAAAAAAAAAAAAAAAAAAAAAAAAAAAAAAAAAAAAAAAAAAAAAAAAAAAAAAAAAAAAAAAAAAAAAAAAAAAAAAAAAAAAAAAAAAAAAAAAAAAAAAAAAAAAAAAAAAAAAAAAAAAAAAAAAAAAAAAAAAAAAAAAAAAAAAAAAAAAAAAAAAAAAAAAAAAAAAAAAAAAAAAAAAAAAAAAAAAAAAAAAAAAAAAAAAAAAAAAAAAAAAAAAAAAAAAAAAAAAAAAAAAAAAAAAAAAAAAAAAAAAAAAAAAAAAAAAAAAAAAAAAAAAAAAAAAAAAAAAAAAAAAAAAAAAAAAAAAAAAAAAAAAAAAAAAAAAAAAAAAAAAAAAAAAAAAAAAAAAAAAAAAAAAAAAAAAAAAAAAAAAAAAAAAAAAAAAAAAAAAAAAAAAAAAAAAAAAAAAAAAAAAAAAAAAAAAAAAAAAAAAAAAAAAAAAAAAAAAAAAAAAAAAAAAAAAAAAAAAAAAAAAAAAAAAAAAAAAAAAAAAAAAAAAAAAAAAAAAAAAAAAAAAAAAAAAAAAAAAAAAAAAAAAAAAAAAAAAAAAAAAAAAAAAAAAAAAAAAAAAAAAAAAAAAAAAAAAAAAAAAAAAAAAAAAAAAAAAAAAAAAAAAAAAAAAAAAAAAAAAAAAAAAAAAAAAAAAAAAAAAAAAAAAAAAAAAAAAAAAAAAAAAAAAAAAAAAAAAAAAAAAAAAAAAAAAAAAAAAAAAAAAAAAAAAAAAAAAAAAAAAAAAAAAAAAAAAAAAAAAAAAAAAAAAAAAAAAAAAAAAAAAAAAAAAAAAAAAAAAAAAAAAAAAAAAAAAAAAAAAAAAAAAAAAAAAAAAAAAAAAAAAAAAAAAAAAAAAAAAAAAAAAAAAAAAAAAAAAAAAAAAAAAAAAAAAAAAAAAAAAAAAAAAAAAAAAAAAAAAAAAAAAAAAAAAAAAAAAAAAAAAAAAAAAAAAAAAAAAAAAAAAAAAAAAAAAAAAAAAAAAAAAAAAAAAAAAAAAAAAAAAAAAAAAAAAAAAAAAAAAAAAAAAAAAAAAAAAAAAAAAAAAAAAAAAAAAAAAAAAAAAAAAAAAAAAAAAAAAAAAAAAAAAAAAAAAAAAAAAAAAAAAAAAAAAAAAAAAAAAAAAAAAAAAAAAAAAAAAAAAAAAAAAAAAAAAAAAAAAAAAAAAAAAAAAAAAAAAAAAAAAAAAAAAAAAAAAAAAAAAAAAAAAAAAAAAAAAAAAAAAAAAAAAAAAAAAAAAAAAAAAAAAAAAAAAAAAAAAAAAAAAAAAAAAAAAAAAAAAAAAAAAAAAAAAAAAAAAAAAAAAAAAAAAAAAAAAAAAAAAAAAAAAAAAAAAAAAAAAAAAAAAAAAAAAAAAAAAAAAAAAAAAAAAAAAAAAAAAAAAAAAAAAAAAAAAAAAAAAAAAAAAAAAAAAAAAAAAAAAAAAAAAAAAAAAAAAAAAAAAAAAAAAAAAAAAAAAAAAAAAAAAAAAAAAAAAAAAAAAAAAAAAAAAAAAAAAAAAAAAAAAAAAAAAAAAAAAAAAAAAAAAAAAAAAAAAAAAAAAAAAAAAAAAAAAAAAAAAAAAAAAAAAAAAAAAAAAAAAAAAAAAAAAAAAAAAAAAAAAAAAAAAAAAAAAAAAAAAAAAAAAAAAAAAAAAAAAAAAAAAAAAAAAAAAAAAAAAAAAAAAAAAAAAAAAAAAAAAAAAAAAAAAAAAAAAAAAAAAAAAAAAAAAAAAAAAAAAAAAAAAAAAAAAAAAAAAAAAAAAAAAAAAAAAAAAAAAAAAAAAAAAAAAAAAAAAAAAAAAAAAAAAAAAAAAAAAAAAAAAAAAAAAAAAAAAAAAAAAAAAAAAAAAAAAAAAAAAAAAAAAAAAAAAAAAAAAAAAAAAAAAAAAAAAAAAAAAAAAAAAAAAAAAAAAAAAAAAAAAAAAAAAAAAAAAAAAAAAAAAAAAAAAAAAAAAAAAAAAAAAAAAAAAAAAAAAAAAAAAAAAAAAAAAAAAAAAAAAAAAAAAAAAAAAAAPZYQBScZuKq1FXx2UfITPrF/xrVYv0//7Fu1b+eTEZhMXvbhp4UhgcgLuPTksg3v3kGp8NVZ5q2EgZVnzzAmPBOr7Q=</c2pa:manifest></metadata>
<rect x="140" y="10" width="10" height="10" fill="#ffffff"/>
<rect x="150" y="10" width="10" height="10" fill="#ffffff"/>
<rect x="160" y="10" width="10" height="10" fill="#ffffff"/>
<rect x="130" y="20" width="10" height="10" fill="#ffffff"/>
<rect x="140" y="20" width="10" height="10" fill="#ffffff"/>
<rect x="150" y="20" width="10" height="10" fill="#ffffff"/>
<rect x="160" y="20" width="10" height="10" fill="#ffffff"/>
<rect x="170" y="20" width="10" height="10" fill="#ffffff"/>
<rect x="120" y="30" width="10" height="10" fill="#ffffff"/>
<rect x="130" y="30" width="10" height="10" fill="#ffffff"/>
<rect x="140" y="30" width="10" height="10" fill="#ffffff"/>
<rect x="150" y="30" width="10" height="10" fill="#ffffff"/>
<rect x="160" y="30" width="10" height="10" fill="#ffffff"/>
<rect x="170" y="30" width="10" height="10" fill="#ffffff"/>
<rect x="180" y="30" width="10" height="10" fill="#ffffff"/>
<rect x="110" y="40" width="10" height="10" fill="#ffffff"/>
<rect x="120" y="40" width="10" height="10" fill="#ffffff"/>
<rect x="130" y="40" width="10" height="10" fill="#ffffff"/>
<rect x="140" y="40" width="10" height="10" fill="#ffffff"/>
<rect x="150" y="40" width="10" height="10" fill="#ffffff"/>
<rect x="160" y="40" width="10" height="10" fill="#ffffff"/>
<rect x="170" y="40" width="10" height="10" fill="#ffffff"/>
<rect x="180" y="40" width="10" height="10" fill="#ffffff"/>
<rect x="190" y="40" width="10" height="10" fill="#ffffff"/>
<rect x="90" y="50" width="10" height="10" fill="#ffffff"/>
<rect x="100" y="50" width="10" height="10" fill="#ffffff"/>
<rect x="110" y="50" width="10" height="10" fill="#ffffff"/>
<rect x="120" y="50" width="10" height="10" fill="#ffffff"/>
<rect x="130" y="50" width="10" height="10" fill="#ffffff"/>
<rect x="140" y="50" width="10" height="10" fill="#ffffff"/>
<rect x="150" y="50" width="10" height="10" fill="#ffffff"/>
<rect x="160" y="50" width="10" height="10" fill="#ffffff"/>
<rect x="170" y="50" width="10" height="10" fill="#ffffff"/>
<rect x="180" y="50" width="10" height="10" fill="#ffffff"/>
<rect x="190" y="50" width="10" height="10" fill="#ffffff"/>
<rect x="200" y="50" width="10" height="10" fill="#ffffff"/>
<rect x="70" y="60" width="10" height="10" fill="#ffffff"/>
<rect x="80" y="60" width="10" height="10" fill="#ffffff"/>
<rect x="90" y="60" width="10" height="10" fill="#ffffff"/>
<rect x="100" y="60" width="10" height="10" fill="#ffffff"/>
<rect x="110" y="60" width="10" height="10" fill="#ffffff"/>
<rect x="120" y="60" width="10" height="10" fill="#ffffff"/>
<rect x="130" y="60" width="10" height="10" fill="#ffffff"/>
<rect x="140" y="60" width="10" height="10" fill="#ffffff"/>
<rect x="150" y="60" width="10" height="10" fill="#ffffff"/>
<rect x="160" y="60" width="10" height="10" fill="#ffffff"/>
<rect x="170" y="60" width="10" height="10" fill="#ffffff"/>
<rect x="180" y="60" width="10" height="10" fill="#ffffff"/>
<rect x="190" y="60" width="10" height="10" fill="#ffffff"/>
<rect x="200" y="60" width="10" height="10" fill="#ffffff"/>
<rect x="210" y="60" width="10" height="10" fill="#ffffff"/>
<rect x="270" y="60" width="10" height="10" fill="#ffffff"/>
<rect x="280" y="60" width="10" height="10" fill="#ffffff"/>
<rect x="50" y="70" width="10" height="10" fill="#ffffff"/>
<rect x="60" y="70" width="10" height="10" fill="#ffffff"/>
<rect x="70" y="70" width="10" height="10" fill="#ffffff"/>
<rect x="80" y="70" width="10" height="10" fill="#ffffff"/>
<rect x="90" y="70" width="10" height="10" fill="#ffffff"/>
<rect x="100" y="70" width="10" height="10" fill="#ffffff"/>
<rect x="110" y="70" width="10" height="10" fill="#ffffff"/>
<rect x="120" y="70" width="10" height="10" fill="#ffffff"/>
<rect x="130" y="70" width="10" height="10" fill="#ffffff"/>
<rect x="140" y="70" width="10" height="10" fill="#ffffff"/>
<rect x="150" y="70" width="10" height="10" fill="#ffffff"/>
<rect x="160" y="70" width="10" height="10" fill="#ffffff"/>
<rect x="170" y="70" width="10" height="10" fill="#ffffff"/>
<rect x="180" y="70" width="10" height="10" fill="#ffffff"/>
<rect x="190" y="70" width="10" height="10" fill="#ffffff"/>
<rect x="200" y="70" width="10" height="10" fill="#ffffff"/>
<rect x="210" y="70" width="10" height="10" fill="#ffffff"/>
<rect x="220" y="70" width="10" height="10" fill="#ffffff"/>
<rect x="230" y="70" width="10" height="10" fill="#ffffff"/>
<rect x="260" y="70" width="10" height="10" fill="#ffffff"/>
<rect x="270" y="70" width="10" height="10" fill="#ffffff"/>
<rect x="280" y="70" width="10" height="10" fill="#ffffff"/>
<rect x="290" y="70" width="10" height="10" fill="#ffffff"/>
<rect x="10" y="80" width="10" height="10" fill="#ffffff"/>
<rect x="20" y="80" width="10" height="10" fill="#ffffff"/>
<rect x="30" y="80" width="10" height="10" fill="#ffffff"/>
<rect x="40" y="80" width="10" height="10" fill="#ffffff"/>
<rect x="50" y="80" width="10" height="10" fill="#ffffff"/>
<rect x="60" y="80" width="10" height="10" fill="#ffffff"/>
<rect x="70" y="80" width="10" height="10" fill="#ffffff"/>
<rect x="80" y="80" width="10" height="10" fill="#ffffff"/>
<rect x="90" y="80" width="10" height="10" fill="#ffffff"/>
<rect x="100" y="80" width="10" height="10" fill="#ffffff"/>
<rect x="110" y="80" width="10" height="10" fill="#ffffff"/>
<rect x="120" y="80" width="10" height="10" fill="#ffffff"/>
<rect x="130" y="80" width="10" height="10" fill="#ffffff"/>
<rect x="140" y="80" width="10" height="10" fill="#ffffff"/>
<rect x="150" y="80" width="10" height="10" fill="#ffffff"/>
<rect x="160" y="80" width="10" height="10" fill="#ffffff"/>
<rect x="170" y="80" width="10" height="10" fill="#ffffff"/>
<rect x="180" y="80" width="10" height="10" fill="#ffffff"/>
<rect x="190" y="80" width="10" height="10" fill="#ffffff"/>
<rect x="200" y="80" width="10" height="10" fill="#ffffff"/>
<rect x="210" y="80" width="10" height="10" fill="#ffffff"/>
<rect x="220" y="80" width="10" height="10" fill="#ffffff"/>
<rect x="230" y="80" width="10" height="10" fill="#ffffff"/>
<rect x="240" y="80" width="10" height="10" fill="#ffffff"/>
<rect x="250" y="80" width="10" height="10" fill="#ffffff"/>
<rect x="260" y="80" width="10" height="10" fill="#ffffff"/>
<rect x="270" y="80" width="10" height="10" fill="#ffffff"/>
<rect x="280" y="80" width="10" height="10" fill="#ffffff"/>
<rect x="290" y="80" width="10" height="10" fill="#ffffff"/>
<rect x="300" y="80" width="10" height="10" fill="#ffffff"/>
<rect x="0" y="90" width="10" height="10" fill="#ffffff"/>
<rect x="10" y="90" width="10" height="10" fill="#ffffff"/>
<rect x="20" y="90" width="10" height="10" fill="#ffffff"/>
<rect x="30" y="90" width="10" height="10" fill="#ffffff"/>
<rect x="40" y="90" width="10" height="10" fill="#ffffff"/>
<rect x="50" y="90" width="10" height="10" fill="#ffffff"/>
<rect x="60" y="90" width="10" height="10" fill="#ffffff"/>
<rect x="70" y="90" width="10" height="10" fill="#ffffff"/>
<rect x="80" y="90" width="10" height="10" fill="#ffffff"/>
<rect x="90" y="90" width="10" height="10" fill="#ffffff"/>
<rect x="100" y="90" width="10" height="10" fill="#ffffff"/>
<rect x="110" y="90" width="10" height="10" fill="#ffffff"/>
<rect x="120" y="90" width="10" height="10" fill="#ffffff"/>
<rect x="130" y="90" width="10" height="10" fill="#ffffff"/>
<rect x="140" y="90" width="10" height="10" fill="#ffffff"/>
<rect x="150" y="90" width="10" height="10" fill="#ffffff"/>
<rect x="160" y="90" width="10" height="10" fill="#ffffff"/>
<rect x="170" y="90" width="10" height="10" fill="#ffffff"/>
<rect x="180" y="90" width="10" height="10" fill="#ffffff"/>
<rect x="190" y="90" width="10" height="10" fill="#ffffff"/>
<rect x="200" y="90" width="10" height="10" fill="#ffffff"/>
<rect x="210" y="90" width="10" height="10" fill="#ffffff"/>
<rect x="220" y="90" width="10" height="10" fill="#ffffff"/>
<rect x="230" y="90" width="10" height="10" fill="#ffffff"/>
<rect x="240" y="90" width="10" height="10" fill="#ffffff"/>
<rect x="250" y="90" width="10" height="10" fill="#ffffff"/>
<rect x="260" y="90" width="10" height="10" fill="#ffffff"/>
<rect x="270" y="90" width="10" height="10" fill="#ffffff"/>
<rect x="280" y="90" width="10" height="10" fill="#ffffff"/>
<rect x="290" y="90" width="10" height="10" fill="#ffffff"/>
<rect x="300" y="90" width="10" height="10" fill="#ffffff"/>
<rect x="310" y="90" width="10" height="10" fill="#ffffff"/>
</svg>
