<svg width="24" height="8" viewBox="0 0 24 8" fill="none" xmlns="http://www.w3.org/2000/svg">
<rect x="0" y="6" width="1" height="1" fill="rgb(51,51,51)"/>
<rect x="1" y="6" width="1" height="1" fill="rgb(34,34,34)"/>
<rect x="2" y="6" width="1" height="1" fill="rgb(68,68,68)"/>
<rect x="3" y="6" width="1" height="1" fill="rgb(34,34,34)"/>
<rect x="4" y="5" width="1" height="1" fill="rgb(34,34,34)"/>
<rect x="5" y="4" width="1" height="1" fill="rgb(34,34,34)"/>
<rect x="6" y="4" width="1" height="1" fill="rgb(17,17,17)"/>
<rect x="7" y="3" width="1" height="1" fill="rgb(85,85,85)"/>
<rect x="8" y="3" width="1" height="1" fill="rgb(51,51,51)"/>
<rect x="9" y="2" width="1" height="1" fill="rgb(34,34,34)"/>
<rect x="10" y="1" width="1" height="1" fill="rgb(68,68,68)"/>
<rect x="11" y="0" width="1" height="1" fill="rgb(34,34,34)"/>
<rect x="12" y="1" width="1" height="1" fill="rgb(34,34,34)"/>
<rect x="13" y="2" width="1" height="1" fill="rgb(17,17,17)"/>
<rect x="14" y="3" width="1" height="1" fill="rgb(34,34,34)"/>
<rect x="15" y="4" width="1" height="1" fill="rgb(102,102,102)"/>
<rect x="16" y="5" width="1" height="1" fill="rgb(34,34,34)"/>
<rect x="17" y="6" width="1" height="1" fill="rgb(34,34,34)"/>
<rect x="18" y="6" width="1" height="1" fill="rgb(34,34,34)"/>
<rect x="19" y="5" width="1" height="1" fill="rgb(34,34,34)"/>
<rect x="20" y="4" width="1" height="1" fill="rgb(0,0,0)"/>
<rect x="21" y="5" width="1" height="1" fill="rgb(17,17,17)"/>
<rect x="22" y="6" width="1" height="1" fill="rgb(17,17,17)"/>
<rect x="23" y="7" width="1" height="1" fill="rgb(34,34,34)"/>
</svg>
